<?xml version="1.0" standalone="no"?>
<!DOCTYPE svg PUBLIC "-//W3C//DTD SVG 20010904//EN"
 "http://www.w3.org/TR/2001/REC-SVG-20010904/DTD/svg10.dtd">
<svg version="1.0" xmlns="http://www.w3.org/2000/svg"
 width="12.000000pt" height="12.000000pt" viewBox="0 0 512.000000 512.000000"
 preserveAspectRatio="xMidYMid meet">

<g transform="translate(0.000000,512.000000) scale(0.100000,-0.100000)"
fill="#84a0ef" stroke="none">
<path d="M2445 5002 c-28 -10 -66 -28 -85 -39 -19 -12 -546 -534 -1171 -1160
-1092 -1093 -1138 -1140 -1160 -1198 -17 -45 -23 -82 -23 -145 -1 -75 3 -93
31 -152 92 -194 322 -277 508 -182 38 20 279 255 1032 1007 l983 982 987 -986
c751 -750 999 -991 1033 -1007 190 -88 413 -6 503 186 28 59 32 77 31 152 0
63 -6 100 -23 145 -22 58 -69 106 -1165 1203 -1284 1286 -1191 1203 -1349
1209 -60 2 -96 -2 -132 -15z"/>
<path d="M1672 2977 l-883 -883 3 -899 c3 -995 -1 -930 68 -1009 18 -20 52
-47 74 -59 40 -21 51 -22 455 -25 372 -3 415 -1 432 14 17 15 18 54 22 678 4
742 2 718 79 876 34 68 60 103 133 176 76 78 104 98 185 138 235 115 494 101
710 -39 112 -73 205 -180 261 -303 63 -135 62 -124 66 -848 4 -624 5 -663 22
-678 17 -15 60 -17 432 -14 404 3 415 4 455 25 22 12 56 39 74 59 69 79 65 14
68 1009 l3 899 -883 883 c-486 486 -885 883 -888 883 -3 0 -402 -397 -888
-883z"/>
</g>
</svg>
