<?xml version="1.0" standalone="no"?>
<!DOCTYPE svg PUBLIC "-//W3C//DTD SVG 20010904//EN"
 "http://www.w3.org/TR/2001/REC-SVG-20010904/DTD/svg10.dtd">
<svg version="1.0" xmlns="http://www.w3.org/2000/svg"
 width="12.000000pt" height="12.000000pt" viewBox="0 0 512.000000 512.000000"
 preserveAspectRatio="xMidYMid meet">

<g transform="translate(0.000000,512.000000) scale(0.100000,-0.100000)"
fill="#84a0ef" stroke="none">
<path d="M2330 5110 c-597 -62 -1140 -326 -1543 -750 -303 -318 -504 -681
-611 -1105 -89 -348 -95 -779 -15 -1125 93 -403 277 -771 531 -1062 32 -36 58
-75 58 -85 0 -10 -29 -205 -65 -433 -36 -228 -65 -432 -65 -453 0 -30 7 -46
30 -69 27 -26 36 -30 68 -25 20 3 216 98 434 212 l396 205 99 -39 c214 -85
407 -133 643 -161 122 -14 418 -15 540 0 842 98 1567 609 1936 1365 116 239
189 476 231 752 25 168 22 499 -5 678 -48 309 -141 582 -284 838 -377 674
-1032 1126 -1798 1242 -124 19 -460 27 -580 15z m540 -206 c417 -59 788 -221
1120 -488 171 -138 375 -370 497 -567 147 -236 252 -514 305 -809 30 -166 36
-481 14 -658 -103 -803 -623 -1489 -1369 -1806 -299 -127 -616 -184 -957 -173
-284 9 -525 61 -787 168 -69 29 -137 52 -151 51 -15 0 -178 -79 -362 -174
-184 -96 -336 -172 -338 -168 -1 3 22 165 53 359 30 194 55 370 55 391 0 32
-9 48 -67 111 -320 355 -521 803 -573 1277 -18 158 -8 474 18 622 43 239 105
426 208 632 176 350 443 655 760 866 474 316 1024 443 1574 366z"/>
<path d="M2430 4396 c-221 -62 -380 -269 -380 -496 0 -277 233 -510 510 -510
277 0 510 233 510 510 0 229 -160 436 -385 496 -62 17 -195 17 -255 0z m264
-210 c66 -30 122 -87 155 -156 34 -74 36 -182 3 -255 -26 -58 -91 -129 -142
-155 -61 -31 -142 -43 -207 -30 -76 16 -119 39 -170 92 -120 123 -118 321 3
441 96 95 236 120 358 63z"/>
<path d="M1973 3223 c-12 -2 -33 -16 -47 -30 l-26 -26 0 -198 c0 -194 0 -198
24 -226 21 -25 31 -28 100 -31 l76 -4 0 -584 0 -584 -69 0 c-60 0 -74 -3 -100
-26 l-31 -26 0 -203 0 -203 31 -26 31 -26 598 0 598 0 31 26 31 26 0 203 0
203 -31 26 c-26 23 -40 26 -100 26 l-69 0 0 798 c0 739 -1 800 -18 832 -29 58
-36 59 -547 58 -253 0 -470 -3 -482 -5z m849 -1004 l3 -811 33 -29 c29 -26 39
-29 102 -29 l70 0 0 -65 0 -65 -470 0 -470 0 0 65 0 65 70 0 c63 0 73 3 102
29 l33 29 3 679 c2 373 0 697 -3 720 -4 25 -16 51 -32 67 -23 23 -33 26 -99
26 l-74 0 0 65 0 65 365 0 365 0 2 -811z"/>
</g>
</svg>
