<?xml version="1.0" standalone="no"?>
<!DOCTYPE svg PUBLIC "-//W3C//DTD SVG 20010904//EN"
 "http://www.w3.org/TR/2001/REC-SVG-20010904/DTD/svg10.dtd">
<svg version="1.0" xmlns="http://www.w3.org/2000/svg"
 width="12.000000pt" height="12.000000pt" viewBox="0 0 512.000000 512.000000"
 preserveAspectRatio="xMidYMid meet">

<g transform="translate(0.000000,512.000000) scale(0.100000,-0.100000)"
fill="#e3796a" stroke="none">
<path d="M2840 5033 c-219 -233 -314 -423 -351 -701 -14 -103 -6 -279 16 -372
l16 -64 -219 -219 -218 -218 -68 41 c-292 178 -669 173 -951 -11 -42 -27 -116
-88 -166 -136 l-90 -87 405 -405 c224 -224 406 -410 406 -414 0 -5 -365 -490
-811 -1079 l-810 -1071 149 -150 149 -149 849 643 c467 353 949 718 1071 811
122 92 225 168 230 168 4 0 191 -183 414 -406 l406 -405 94 99 c53 56 115 135
142 180 171 284 169 644 -3 929 l-41 67 218 217 218 218 65 -14 c164 -37 377
-28 547 21 207 60 344 142 526 315 l88 84 -1099 1098 -1099 1099 -83 -89z
m965 -1233 c830 -830 869 -870 850 -885 -38 -30 -161 -84 -240 -107 -114 -32
-325 -32 -438 0 -83 24 -193 75 -267 125 -59 40 -698 675 -757 752 -168 220
-216 518 -127 785 25 75 89 200 102 200 4 0 398 -391 877 -870z m-710 -710
l470 -470 -158 -157 -157 -158 -472 472 -473 473 155 155 c85 85 157 155 160
155 3 0 217 -212 475 -470z m-1406 225 c35 -9 93 -30 130 -47 60 -29 122 -88
738 -703 631 -630 673 -674 707 -743 52 -103 69 -186 63 -302 -4 -95 -31 -198
-64 -249 -15 -24 -20 -19 -1014 975 -549 549 -995 1002 -992 1007 8 13 91 47
153 62 74 18 201 18 279 0z m351 -1280 c107 -107 192 -196 190 -198 -7 -6
-1498 -1128 -1545 -1162 l-40 -30 35 47 c249 334 1156 1537 1160 1537 3 1 93
-87 200 -194z"/>
</g>
</svg>
