<?xml version="1.0" standalone="no"?>
<!DOCTYPE svg PUBLIC "-//W3C//DTD SVG 20010904//EN"
 "http://www.w3.org/TR/2001/REC-SVG-20010904/DTD/svg10.dtd">
<svg version="1.0" xmlns="http://www.w3.org/2000/svg"
 width="12.000000pt" height="12.000000pt" viewBox="0 0 512.000000 512.000000"
 preserveAspectRatio="xMidYMid meet">

<g transform="translate(0.000000,512.000000) scale(0.100000,-0.100000)"
fill="#000000" stroke="none">
<path d="M1503 4347 l-1053 -772 0 -713 c0 -571 3 -713 13 -709 7 2 478 345
1047 762 568 416 1039 759 1045 761 6 3 481 -340 1055 -761 575 -420 1048
-765 1053 -765 4 0 7 321 7 713 l0 713 -1054 772 c-580 425 -1056 772 -1058
771 -2 0 -477 -348 -1055 -772z"/>
<path d="M1498 2202 l-1048 -767 0 -718 0 -718 28 19 c15 11 488 358 1052 771
564 413 1027 751 1030 751 3 0 466 -338 1030 -751 564 -413 1037 -760 1053
-771 l27 -19 0 718 0 718 -1045 765 c-575 421 -1053 766 -1063 767 -9 2 -479
-336 -1064 -765z"/>
</g>
</svg>
